<?xml version="1.0" encoding="UTF-8" standalone="no"?>
<!DOCTYPE svg PUBLIC "-//W3C//DTD SVG 1.1//EN"
 "http://www.w3.org/Graphics/SVG/1.1/DTD/svg11.dtd">
<!-- Generated by graphviz version 13.1.2 (0)
 -->
<!-- Title: compositions Pages: 1 -->
<svg width="1424pt" height="281pt"
 viewBox="0.00 0.00 1424.00 281.00" xmlns="http://www.w3.org/2000/svg" xmlns:xlink="http://www.w3.org/1999/xlink">
<g id="graph0" class="graph" transform="scale(1 1) rotate(0) translate(4 277.25)">
<title>compositions</title>
<polygon fill="white" stroke="none" points="-4,4 -4,-277.25 1420.25,-277.25 1420.25,4 -4,4"/>
<g id="clust1" class="cluster">
<title>cluster_ratatui</title>
<polygon fill="#f0f0f0" stroke="black" points="8,-97.75 8,-265 200,-265 200,-97.75 8,-97.75"/>
<text xml:space="preserve" text-anchor="middle" x="104" y="-247.7" font-family="Times,serif" font-size="14.00">Ratatui Way</text>
</g>
<g id="clust3" class="cluster">
<title>cluster_decorator</title>
<polygon fill="#f0f0f0" stroke="black" points="371,-8 371,-265.25 540,-265.25 540,-8 371,-8"/>
<text xml:space="preserve" text-anchor="middle" x="455.5" y="-247.95" font-family="Times,serif" font-size="14.00">Traditional Decorator</text>
</g>
<g id="clust4" class="cluster">
<title>cluster_flat</title>
<polygon fill="#f0f0f0" stroke="black" points="708,-8 708,-265 1262,-265 1262,-8 708,-8"/>
<text xml:space="preserve" text-anchor="middle" x="985" y="-247.7" font-family="Times,serif" font-size="14.00">Flat Decorator</text>
</g>
<!-- widget_foo -->
<g id="node1" class="node">
<title>widget_foo</title>
<path fill="none" stroke="black" d="M125.5,-231.75C125.5,-231.75 70.5,-231.75 70.5,-231.75 64.5,-231.75 58.5,-225.75 58.5,-219.75 58.5,-219.75 58.5,-207.75 58.5,-207.75 58.5,-201.75 64.5,-195.75 70.5,-195.75 70.5,-195.75 125.5,-195.75 125.5,-195.75 131.5,-195.75 137.5,-201.75 137.5,-207.75 137.5,-207.75 137.5,-219.75 137.5,-219.75 137.5,-225.75 131.5,-231.75 125.5,-231.75"/>
<text xml:space="preserve" text-anchor="middle" x="98" y="-209.47" font-family="Fira Code" font-size="12.00" fill="white">WidgetFoo</text>
</g>
<!-- style_r -->
<g id="node2" class="node">
<title>style_r</title>
<path fill="none" stroke="black" d="M58,-142C58,-142 28,-142 28,-142 22,-142 16,-136 16,-130 16,-130 16,-118 16,-118 16,-112 22,-106 28,-106 28,-106 58,-106 58,-106 64,-106 70,-112 70,-118 70,-118 70,-130 70,-130 70,-136 64,-142 58,-142"/>
<text xml:space="preserve" text-anchor="middle" x="43" y="-119.72" font-family="Fira Code" font-size="12.00" fill="white">Style</text>
</g>
<!-- widget_foo&#45;&gt;style_r -->
<!-- block_r -->
<g id="node3" class="node">
<title>block_r</title>
<path fill="none" stroke="black" d="M179.88,-142.25C179.88,-142.25 100.12,-142.25 100.12,-142.25 94.12,-142.25 88.12,-136.25 88.12,-130.25 88.12,-130.25 88.12,-117.75 88.12,-117.75 88.12,-111.75 94.12,-105.75 100.12,-105.75 100.12,-105.75 179.88,-105.75 179.88,-105.75 185.88,-105.75 191.88,-111.75 191.88,-117.75 191.88,-117.75 191.88,-130.25 191.88,-130.25 191.88,-136.25 185.88,-142.25 179.88,-142.25"/>
<text xml:space="preserve" text-anchor="middle" x="140" y="-126.85" font-family="Fira Code" font-size="12.00" fill="white">Block</text>
<text xml:space="preserve" text-anchor="middle" x="140" y="-112.6" font-family="Fira Code" font-size="12.00" fill="white">(Title, Borders)</text>
</g>
<!-- widget_foo&#45;&gt;block_r -->
<!-- ratatui_note -->
<g id="node4" class="node">
<title>ratatui_note</title>
<polygon fill="#f8e1a8" stroke="black" points="356,-232 208,-232 208,-195.5 362,-195.5 362,-226 356,-232"/>
<polyline fill="none" stroke="black" points="356,-232 356,-226"/>
<polyline fill="none" stroke="black" points="362,-226 356,-226"/>
<text xml:space="preserve" text-anchor="middle" x="285" y="-216.6" font-family="Fira Code" font-size="12.00">Fixed, embedded fields</text>
<text xml:space="preserve" text-anchor="middle" x="285" y="-202.35" font-family="Fira Code" font-size="12.00">Repetitive code</text>
</g>
<!-- style_d -->
<g id="node5" class="node">
<title>style_d</title>
<path fill="none" stroke="black" d="M423.88,-232C423.88,-232 392.12,-232 392.12,-232 386.12,-232 380.12,-226 380.12,-220 380.12,-220 380.12,-207.5 380.12,-207.5 380.12,-201.5 386.12,-195.5 392.12,-195.5 392.12,-195.5 423.88,-195.5 423.88,-195.5 429.88,-195.5 435.88,-201.5 435.88,-207.5 435.88,-207.5 435.88,-220 435.88,-220 435.88,-226 429.88,-232 423.88,-232"/>
<text xml:space="preserve" text-anchor="middle" x="408" y="-216.6" font-family="Fira Code" font-size="12.00" fill="white">Style</text>
<text xml:space="preserve" text-anchor="middle" x="408" y="-202.35" font-family="Fira Code" font-size="12.00" fill="white">render</text>
</g>
<!-- block_d -->
<g id="node6" class="node">
<title>block_d</title>
<path fill="none" stroke="black" d="M423.88,-142.25C423.88,-142.25 392.12,-142.25 392.12,-142.25 386.12,-142.25 380.12,-136.25 380.12,-130.25 380.12,-130.25 380.12,-117.75 380.12,-117.75 380.12,-111.75 386.12,-105.75 392.12,-105.75 392.12,-105.75 423.88,-105.75 423.88,-105.75 429.88,-105.75 435.88,-111.75 435.88,-117.75 435.88,-117.75 435.88,-130.25 435.88,-130.25 435.88,-136.25 429.88,-142.25 423.88,-142.25"/>
<text xml:space="preserve" text-anchor="middle" x="408" y="-126.85" font-family="Fira Code" font-size="12.00" fill="white">Block</text>
<text xml:space="preserve" text-anchor="middle" x="408" y="-112.6" font-family="Fira Code" font-size="12.00" fill="white">render</text>
</g>
<!-- style_d&#45;&gt;block_d -->
<g id="edge3" class="edge">
<title>style_d&#45;&gt;block_d</title>
<path fill="none" stroke="#333333" d="M408,-195.41C408,-183.59 408,-167.65 408,-153.93"/>
<polygon fill="#333333" stroke="#333333" points="411.5,-154.11 408,-144.11 404.5,-154.11 411.5,-154.11"/>
<text xml:space="preserve" text-anchor="middle" x="429.75" y="-164.2" font-family="Times,serif" font-size="14.00">wraps</text>
</g>
<!-- widget_d -->
<g id="node7" class="node">
<title>widget_d</title>
<path fill="none" stroke="black" d="M424.62,-52.5C424.62,-52.5 391.38,-52.5 391.38,-52.5 385.38,-52.5 379.38,-46.5 379.38,-40.5 379.38,-40.5 379.38,-28 379.38,-28 379.38,-22 385.38,-16 391.38,-16 391.38,-16 424.62,-16 424.62,-16 430.62,-16 436.62,-22 436.62,-28 436.62,-28 436.62,-40.5 436.62,-40.5 436.62,-46.5 430.62,-52.5 424.62,-52.5"/>
<text xml:space="preserve" text-anchor="middle" x="408" y="-37.1" font-family="Fira Code" font-size="12.00" fill="white">Widget</text>
<text xml:space="preserve" text-anchor="middle" x="408" y="-22.85" font-family="Fira Code" font-size="12.00" fill="white">render</text>
</g>
<!-- block_d&#45;&gt;widget_d -->
<g id="edge4" class="edge">
<title>block_d&#45;&gt;widget_d</title>
<path fill="none" stroke="#333333" d="M408,-105.66C408,-93.84 408,-77.9 408,-64.18"/>
<polygon fill="#333333" stroke="#333333" points="411.5,-64.36 408,-54.36 404.5,-64.36 411.5,-64.36"/>
<text xml:space="preserve" text-anchor="middle" x="429.75" y="-74.45" font-family="Times,serif" font-size="14.00">wraps</text>
</g>
<!-- decorator_note -->
<g id="node8" class="node">
<title>decorator_note</title>
<polygon fill="#f8e1a8" stroke="black" points="694.25,-232 547.75,-232 547.75,-195.5 700.25,-195.5 700.25,-226 694.25,-232"/>
<polyline fill="none" stroke="black" points="694.25,-232 694.25,-226"/>
<polyline fill="none" stroke="black" points="700.25,-226 694.25,-226"/>
<text xml:space="preserve" text-anchor="middle" x="624" y="-216.6" font-family="Fira Code" font-size="12.00">Recursive, trait objects</text>
<text xml:space="preserve" text-anchor="middle" x="624" y="-202.35" font-family="Fira Code" font-size="12.00">Dynamic but costly</text>
</g>
<!-- garnished -->
<g id="node9" class="node">
<title>garnished</title>
<path fill="none" stroke="black" d="M845.62,-231.75C845.62,-231.75 752.38,-231.75 752.38,-231.75 746.38,-231.75 740.38,-225.75 740.38,-219.75 740.38,-219.75 740.38,-207.75 740.38,-207.75 740.38,-201.75 746.38,-195.75 752.38,-195.75 752.38,-195.75 845.62,-195.75 845.62,-195.75 851.62,-195.75 857.62,-201.75 857.62,-207.75 857.62,-207.75 857.62,-219.75 857.62,-219.75 857.62,-225.75 851.62,-231.75 845.62,-231.75"/>
<text xml:space="preserve" text-anchor="middle" x="799" y="-209.47" font-family="Fira Code" font-size="12.00" fill="white">GarnishedWidget</text>
</g>
<!-- widget_f -->
<g id="node10" class="node">
<title>widget_f</title>
<path fill="none" stroke="black" d="M761.62,-52.5C761.62,-52.5 728.38,-52.5 728.38,-52.5 722.38,-52.5 716.38,-46.5 716.38,-40.5 716.38,-40.5 716.38,-28 716.38,-28 716.38,-22 722.38,-16 728.38,-16 728.38,-16 761.62,-16 761.62,-16 767.62,-16 773.62,-22 773.62,-28 773.62,-28 773.62,-40.5 773.62,-40.5 773.62,-46.5 767.62,-52.5 761.62,-52.5"/>
<text xml:space="preserve" text-anchor="middle" x="745" y="-37.1" font-family="Fira Code" font-size="12.00" fill="white">Widget</text>
<text xml:space="preserve" text-anchor="middle" x="745" y="-22.85" font-family="Fira Code" font-size="12.00" fill="white">render</text>
</g>
<!-- garnished&#45;&gt;widget_f -->
<!-- garnishes -->
<g id="node11" class="node">
<title>garnishes</title>
<path fill="none" stroke="black" d="M938.88,-142C938.88,-142 859.12,-142 859.12,-142 853.12,-142 847.12,-136 847.12,-130 847.12,-130 847.12,-118 847.12,-118 847.12,-112 853.12,-106 859.12,-106 859.12,-106 938.88,-106 938.88,-106 944.88,-106 950.88,-112 950.88,-118 950.88,-118 950.88,-130 950.88,-130 950.88,-136 944.88,-142 938.88,-142"/>
<text xml:space="preserve" text-anchor="middle" x="899" y="-119.72" font-family="Fira Code" font-size="12.00" fill="white">Garnishes: Vec</text>
</g>
<!-- garnished&#45;&gt;garnishes -->
<!-- garnishes&#45;&gt;widget_f -->
<g id="edge11" class="edge">
<title>garnishes&#45;&gt;widget_f</title>
<path fill="none" stroke="#333333" stroke-dasharray="5,2" d="M855.89,-105.64C843.95,-100.35 831.15,-94.21 819.75,-87.75 804.98,-79.38 789.5,-68.84 776.48,-59.4"/>
<polygon fill="#333333" stroke="#333333" points="778.82,-56.78 768.7,-53.66 774.67,-62.41 778.82,-56.78"/>
<text xml:space="preserve" text-anchor="middle" x="840.38" y="-74.45" font-family="Times,serif" font-size="14.00">hooks</text>
</g>
<!-- garnish_style -->
<g id="node12" class="node">
<title>garnish_style</title>
<path fill="none" stroke="black" d="M877.88,-52.25C877.88,-52.25 804.12,-52.25 804.12,-52.25 798.12,-52.25 792.12,-46.25 792.12,-40.25 792.12,-40.25 792.12,-28.25 792.12,-28.25 792.12,-22.25 798.12,-16.25 804.12,-16.25 804.12,-16.25 877.88,-16.25 877.88,-16.25 883.88,-16.25 889.88,-22.25 889.88,-28.25 889.88,-28.25 889.88,-40.25 889.88,-40.25 889.88,-46.25 883.88,-52.25 877.88,-52.25"/>
<text xml:space="preserve" text-anchor="middle" x="841" y="-29.98" font-family="Fira Code" font-size="12.00">Garnish::Style</text>
</g>
<!-- garnishes&#45;&gt;garnish_style -->
<!-- garnish_block -->
<g id="node13" class="node">
<title>garnish_block</title>
<path fill="none" stroke="black" d="M996.38,-52.25C996.38,-52.25 919.62,-52.25 919.62,-52.25 913.62,-52.25 907.62,-46.25 907.62,-40.25 907.62,-40.25 907.62,-28.25 907.62,-28.25 907.62,-22.25 913.62,-16.25 919.62,-16.25 919.62,-16.25 996.38,-16.25 996.38,-16.25 1002.38,-16.25 1008.38,-22.25 1008.38,-28.25 1008.38,-28.25 1008.38,-40.25 1008.38,-40.25 1008.38,-46.25 1002.38,-52.25 996.38,-52.25"/>
<text xml:space="preserve" text-anchor="middle" x="958" y="-29.98" font-family="Fira Code" font-size="12.00">Garnish::Block</text>
</g>
<!-- garnishes&#45;&gt;garnish_block -->
<!-- garnish_padding -->
<g id="node14" class="node">
<title>garnish_padding</title>
<path fill="none" stroke="black" d="M1129.88,-52.25C1129.88,-52.25 1038.12,-52.25 1038.12,-52.25 1032.12,-52.25 1026.12,-46.25 1026.12,-40.25 1026.12,-40.25 1026.12,-28.25 1026.12,-28.25 1026.12,-22.25 1032.12,-16.25 1038.12,-16.25 1038.12,-16.25 1129.88,-16.25 1129.88,-16.25 1135.88,-16.25 1141.88,-22.25 1141.88,-28.25 1141.88,-28.25 1141.88,-40.25 1141.88,-40.25 1141.88,-46.25 1135.88,-52.25 1129.88,-52.25"/>
<text xml:space="preserve" text-anchor="middle" x="1084" y="-29.98" font-family="Fira Code" font-size="12.00">Garnish::Padding</text>
</g>
<!-- garnishes&#45;&gt;garnish_padding -->
<!-- garnish_title -->
<g id="node15" class="node">
<title>garnish_title</title>
<path fill="none" stroke="black" d="M1241.62,-52.25C1241.62,-52.25 1172.38,-52.25 1172.38,-52.25 1166.38,-52.25 1160.38,-46.25 1160.38,-40.25 1160.38,-40.25 1160.38,-28.25 1160.38,-28.25 1160.38,-22.25 1166.38,-16.25 1172.38,-16.25 1172.38,-16.25 1241.62,-16.25 1241.62,-16.25 1247.62,-16.25 1253.62,-22.25 1253.62,-28.25 1253.62,-28.25 1253.62,-40.25 1253.62,-40.25 1253.62,-46.25 1247.62,-52.25 1241.62,-52.25"/>
<text xml:space="preserve" text-anchor="middle" x="1207" y="-29.98" font-family="Fira Code" font-size="12.00">Garnish::Title</text>
</g>
<!-- garnishes&#45;&gt;garnish_title -->
<!-- flat_note -->
<g id="node16" class="node">
<title>flat_note</title>
<polygon fill="#f8e1a8" stroke="black" points="1410.25,-232 1269.75,-232 1269.75,-195.5 1416.25,-195.5 1416.25,-226 1410.25,-232"/>
<polyline fill="none" stroke="black" points="1410.25,-232 1410.25,-226"/>
<polyline fill="none" stroke="black" points="1416.25,-226 1410.25,-226"/>
<text xml:space="preserve" text-anchor="middle" x="1343" y="-216.6" font-family="Fira Code" font-size="12.00">Contiguous, type&#45;safe</text>
<text xml:space="preserve" text-anchor="middle" x="1343" y="-202.35" font-family="Fira Code" font-size="12.00">Flexible and efficient</text>
</g>
</g>
</svg>
